<mxfile host="app.diagrams.net" modified="2023-11-11T18:11:04.246Z" agent="Mozilla/5.0 (Macintosh; Intel Mac OS X 10_15_7) AppleWebKit/605.1.15 (KHTML, like Gecko) Version/17.0 Safari/605.1.15" etag="ZsNP0XkdQj9UujhsOcp_" version="22.1.0" type="device">
  <diagram name="Page-1" id="gHZtXQD03dkbiyWSL4QR">
    <mxGraphModel dx="1706" dy="1106" grid="1" gridSize="10" guides="1" tooltips="1" connect="1" arrows="1" fold="1" page="1" pageScale="1" pageWidth="827" pageHeight="1169" math="0" shadow="0">
      <root>
        <mxCell id="0" />
        <mxCell id="1" parent="0" />
        <mxCell id="sP0U70dSBuYbOyyXhxNo-1" value="Login/SignUp" style="rounded=1;whiteSpace=wrap;html=1;fontSize=21;" vertex="1" parent="1">
          <mxGeometry x="535" y="80" width="172" height="60" as="geometry" />
        </mxCell>
        <mxCell id="sP0U70dSBuYbOyyXhxNo-47" style="edgeStyle=orthogonalEdgeStyle;rounded=0;orthogonalLoop=1;jettySize=auto;html=1;entryX=0.5;entryY=0;entryDx=0;entryDy=0;" edge="1" parent="1" source="sP0U70dSBuYbOyyXhxNo-2" target="sP0U70dSBuYbOyyXhxNo-3">
          <mxGeometry relative="1" as="geometry">
            <Array as="points">
              <mxPoint x="621" y="300" />
              <mxPoint x="220" y="300" />
            </Array>
          </mxGeometry>
        </mxCell>
        <mxCell id="sP0U70dSBuYbOyyXhxNo-2" value="Home" style="rounded=1;whiteSpace=wrap;html=1;fontSize=21;" vertex="1" parent="1">
          <mxGeometry x="561" y="210" width="120" height="60" as="geometry" />
        </mxCell>
        <mxCell id="sP0U70dSBuYbOyyXhxNo-17" style="edgeStyle=orthogonalEdgeStyle;rounded=0;orthogonalLoop=1;jettySize=auto;html=1;exitX=0.5;exitY=1;exitDx=0;exitDy=0;entryX=1;entryY=0.5;entryDx=0;entryDy=0;" edge="1" parent="1" source="sP0U70dSBuYbOyyXhxNo-3" target="sP0U70dSBuYbOyyXhxNo-5">
          <mxGeometry relative="1" as="geometry" />
        </mxCell>
        <mxCell id="sP0U70dSBuYbOyyXhxNo-18" style="edgeStyle=orthogonalEdgeStyle;rounded=0;orthogonalLoop=1;jettySize=auto;html=1;entryX=0;entryY=0.5;entryDx=0;entryDy=0;" edge="1" parent="1" source="sP0U70dSBuYbOyyXhxNo-3" target="sP0U70dSBuYbOyyXhxNo-6">
          <mxGeometry relative="1" as="geometry" />
        </mxCell>
        <mxCell id="sP0U70dSBuYbOyyXhxNo-3" value="Calculate FootPrint" style="rounded=1;whiteSpace=wrap;html=1;fontSize=21;" vertex="1" parent="1">
          <mxGeometry x="160" y="338.5" width="120" height="81" as="geometry" />
        </mxCell>
        <mxCell id="sP0U70dSBuYbOyyXhxNo-32" style="edgeStyle=orthogonalEdgeStyle;rounded=0;orthogonalLoop=1;jettySize=auto;html=1;entryX=0;entryY=0.5;entryDx=0;entryDy=0;" edge="1" parent="1" source="sP0U70dSBuYbOyyXhxNo-4" target="sP0U70dSBuYbOyyXhxNo-26">
          <mxGeometry relative="1" as="geometry" />
        </mxCell>
        <mxCell id="sP0U70dSBuYbOyyXhxNo-33" style="edgeStyle=orthogonalEdgeStyle;rounded=0;orthogonalLoop=1;jettySize=auto;html=1;entryX=1;entryY=0.5;entryDx=0;entryDy=0;" edge="1" parent="1" source="sP0U70dSBuYbOyyXhxNo-4" target="sP0U70dSBuYbOyyXhxNo-24">
          <mxGeometry relative="1" as="geometry" />
        </mxCell>
        <mxCell id="sP0U70dSBuYbOyyXhxNo-4" value="Recycling" style="rounded=1;whiteSpace=wrap;html=1;fontSize=21;" vertex="1" parent="1">
          <mxGeometry x="560" y="338.5" width="120" height="80" as="geometry" />
        </mxCell>
        <mxCell id="sP0U70dSBuYbOyyXhxNo-19" style="edgeStyle=orthogonalEdgeStyle;rounded=0;orthogonalLoop=1;jettySize=auto;html=1;exitX=0.5;exitY=1;exitDx=0;exitDy=0;entryX=0;entryY=0.5;entryDx=0;entryDy=0;" edge="1" parent="1" source="sP0U70dSBuYbOyyXhxNo-5" target="sP0U70dSBuYbOyyXhxNo-7">
          <mxGeometry relative="1" as="geometry" />
        </mxCell>
        <mxCell id="sP0U70dSBuYbOyyXhxNo-5" value="Image" style="rounded=1;whiteSpace=wrap;html=1;fontSize=21;" vertex="1" parent="1">
          <mxGeometry x="40" y="470" width="120" height="60" as="geometry" />
        </mxCell>
        <mxCell id="sP0U70dSBuYbOyyXhxNo-20" style="edgeStyle=orthogonalEdgeStyle;rounded=0;orthogonalLoop=1;jettySize=auto;html=1;entryX=1;entryY=0.5;entryDx=0;entryDy=0;" edge="1" parent="1" source="sP0U70dSBuYbOyyXhxNo-6" target="sP0U70dSBuYbOyyXhxNo-7">
          <mxGeometry relative="1" as="geometry" />
        </mxCell>
        <mxCell id="sP0U70dSBuYbOyyXhxNo-6" value="Text" style="rounded=1;whiteSpace=wrap;html=1;fontSize=21;" vertex="1" parent="1">
          <mxGeometry x="280" y="470" width="120" height="60" as="geometry" />
        </mxCell>
        <mxCell id="sP0U70dSBuYbOyyXhxNo-7" value="User Input" style="rounded=1;whiteSpace=wrap;html=1;fontSize=21;" vertex="1" parent="1">
          <mxGeometry x="160" y="560" width="120" height="60" as="geometry" />
        </mxCell>
        <mxCell id="sP0U70dSBuYbOyyXhxNo-39" style="edgeStyle=orthogonalEdgeStyle;rounded=0;orthogonalLoop=1;jettySize=auto;html=1;dashed=1;" edge="1" parent="1" source="sP0U70dSBuYbOyyXhxNo-8" target="sP0U70dSBuYbOyyXhxNo-37">
          <mxGeometry relative="1" as="geometry">
            <Array as="points">
              <mxPoint x="100" y="720" />
            </Array>
          </mxGeometry>
        </mxCell>
        <mxCell id="sP0U70dSBuYbOyyXhxNo-40" style="edgeStyle=orthogonalEdgeStyle;rounded=0;orthogonalLoop=1;jettySize=auto;html=1;entryX=0.5;entryY=0;entryDx=0;entryDy=0;" edge="1" parent="1" source="sP0U70dSBuYbOyyXhxNo-8" target="sP0U70dSBuYbOyyXhxNo-9">
          <mxGeometry relative="1" as="geometry" />
        </mxCell>
        <mxCell id="sP0U70dSBuYbOyyXhxNo-42" style="edgeStyle=orthogonalEdgeStyle;rounded=0;orthogonalLoop=1;jettySize=auto;html=1;" edge="1" parent="1" source="sP0U70dSBuYbOyyXhxNo-8" target="sP0U70dSBuYbOyyXhxNo-41">
          <mxGeometry relative="1" as="geometry" />
        </mxCell>
        <mxCell id="sP0U70dSBuYbOyyXhxNo-8" value="AI trained Model" style="rounded=1;whiteSpace=wrap;html=1;fontSize=21;" vertex="1" parent="1">
          <mxGeometry x="160" y="680" width="520" height="80" as="geometry" />
        </mxCell>
        <mxCell id="sP0U70dSBuYbOyyXhxNo-9" value="Connect to Vendors for recycling" style="rounded=1;whiteSpace=wrap;html=1;fontSize=21;" vertex="1" parent="1">
          <mxGeometry x="490" y="830" width="160" height="100" as="geometry" />
        </mxCell>
        <mxCell id="sP0U70dSBuYbOyyXhxNo-23" style="edgeStyle=orthogonalEdgeStyle;rounded=0;orthogonalLoop=1;jettySize=auto;html=1;exitX=0.5;exitY=1;exitDx=0;exitDy=0;entryX=0;entryY=0.5;entryDx=0;entryDy=0;" edge="1" source="sP0U70dSBuYbOyyXhxNo-24" target="sP0U70dSBuYbOyyXhxNo-28" parent="1">
          <mxGeometry relative="1" as="geometry" />
        </mxCell>
        <mxCell id="sP0U70dSBuYbOyyXhxNo-24" value="Image" style="rounded=1;whiteSpace=wrap;html=1;fontSize=21;" vertex="1" parent="1">
          <mxGeometry x="440" y="470" width="120" height="60" as="geometry" />
        </mxCell>
        <mxCell id="sP0U70dSBuYbOyyXhxNo-25" style="edgeStyle=orthogonalEdgeStyle;rounded=0;orthogonalLoop=1;jettySize=auto;html=1;entryX=1;entryY=0.5;entryDx=0;entryDy=0;" edge="1" source="sP0U70dSBuYbOyyXhxNo-26" target="sP0U70dSBuYbOyyXhxNo-28" parent="1">
          <mxGeometry relative="1" as="geometry" />
        </mxCell>
        <mxCell id="sP0U70dSBuYbOyyXhxNo-26" value="Text" style="rounded=1;whiteSpace=wrap;html=1;fontSize=21;" vertex="1" parent="1">
          <mxGeometry x="680" y="470" width="120" height="60" as="geometry" />
        </mxCell>
        <mxCell id="sP0U70dSBuYbOyyXhxNo-28" value="User Input" style="rounded=1;whiteSpace=wrap;html=1;fontSize=21;" vertex="1" parent="1">
          <mxGeometry x="560" y="560" width="120" height="60" as="geometry" />
        </mxCell>
        <mxCell id="sP0U70dSBuYbOyyXhxNo-36" style="edgeStyle=orthogonalEdgeStyle;rounded=0;orthogonalLoop=1;jettySize=auto;html=1;entryX=0.115;entryY=0;entryDx=0;entryDy=0;entryPerimeter=0;" edge="1" parent="1" source="sP0U70dSBuYbOyyXhxNo-7" target="sP0U70dSBuYbOyyXhxNo-8">
          <mxGeometry relative="1" as="geometry" />
        </mxCell>
        <mxCell id="sP0U70dSBuYbOyyXhxNo-37" value="DataBase" style="rounded=1;whiteSpace=wrap;html=1;fontSize=21;" vertex="1" parent="1">
          <mxGeometry x="40" y="800" width="120" height="40" as="geometry" />
        </mxCell>
        <mxCell id="sP0U70dSBuYbOyyXhxNo-38" style="edgeStyle=orthogonalEdgeStyle;rounded=0;orthogonalLoop=1;jettySize=auto;html=1;entryX=0.885;entryY=0.025;entryDx=0;entryDy=0;entryPerimeter=0;" edge="1" parent="1" source="sP0U70dSBuYbOyyXhxNo-28" target="sP0U70dSBuYbOyyXhxNo-8">
          <mxGeometry relative="1" as="geometry" />
        </mxCell>
        <mxCell id="sP0U70dSBuYbOyyXhxNo-41" value="Water footprint of the product" style="rounded=1;whiteSpace=wrap;html=1;fontSize=21;" vertex="1" parent="1">
          <mxGeometry x="200" y="830" width="160" height="100" as="geometry" />
        </mxCell>
        <mxCell id="sP0U70dSBuYbOyyXhxNo-52" style="edgeStyle=orthogonalEdgeStyle;rounded=0;orthogonalLoop=1;jettySize=auto;html=1;exitX=0.5;exitY=1;exitDx=0;exitDy=0;" edge="1" parent="1" source="sP0U70dSBuYbOyyXhxNo-43" target="sP0U70dSBuYbOyyXhxNo-49">
          <mxGeometry relative="1" as="geometry" />
        </mxCell>
        <mxCell id="sP0U70dSBuYbOyyXhxNo-43" value="Water Usage" style="rounded=1;whiteSpace=wrap;html=1;fontSize=21;" vertex="1" parent="1">
          <mxGeometry x="840" y="339.25" width="162" height="80" as="geometry" />
        </mxCell>
        <mxCell id="sP0U70dSBuYbOyyXhxNo-45" style="edgeStyle=orthogonalEdgeStyle;rounded=0;orthogonalLoop=1;jettySize=auto;html=1;entryX=0.501;entryY=-0.03;entryDx=0;entryDy=0;entryPerimeter=0;" edge="1" parent="1" source="sP0U70dSBuYbOyyXhxNo-1" target="sP0U70dSBuYbOyyXhxNo-2">
          <mxGeometry relative="1" as="geometry" />
        </mxCell>
        <mxCell id="sP0U70dSBuYbOyyXhxNo-46" style="edgeStyle=orthogonalEdgeStyle;rounded=0;orthogonalLoop=1;jettySize=auto;html=1;entryX=0.504;entryY=-0.017;entryDx=0;entryDy=0;entryPerimeter=0;" edge="1" parent="1" source="sP0U70dSBuYbOyyXhxNo-2" target="sP0U70dSBuYbOyyXhxNo-4">
          <mxGeometry relative="1" as="geometry" />
        </mxCell>
        <mxCell id="sP0U70dSBuYbOyyXhxNo-48" style="edgeStyle=orthogonalEdgeStyle;rounded=0;orthogonalLoop=1;jettySize=auto;html=1;exitX=0.5;exitY=1;exitDx=0;exitDy=0;entryX=0.5;entryY=0;entryDx=0;entryDy=0;" edge="1" parent="1" source="sP0U70dSBuYbOyyXhxNo-2" target="sP0U70dSBuYbOyyXhxNo-43">
          <mxGeometry relative="1" as="geometry">
            <Array as="points">
              <mxPoint x="621" y="300" />
              <mxPoint x="921" y="300" />
            </Array>
          </mxGeometry>
        </mxCell>
        <mxCell id="sP0U70dSBuYbOyyXhxNo-53" style="edgeStyle=orthogonalEdgeStyle;rounded=0;orthogonalLoop=1;jettySize=auto;html=1;exitX=0.5;exitY=1;exitDx=0;exitDy=0;entryX=0.5;entryY=0;entryDx=0;entryDy=0;" edge="1" parent="1" source="sP0U70dSBuYbOyyXhxNo-49" target="sP0U70dSBuYbOyyXhxNo-50">
          <mxGeometry relative="1" as="geometry" />
        </mxCell>
        <mxCell id="sP0U70dSBuYbOyyXhxNo-49" value="Tracking" style="rounded=1;whiteSpace=wrap;html=1;fontSize=21;" vertex="1" parent="1">
          <mxGeometry x="840" y="470" width="162" height="60" as="geometry" />
        </mxCell>
        <mxCell id="sP0U70dSBuYbOyyXhxNo-54" style="edgeStyle=orthogonalEdgeStyle;rounded=0;orthogonalLoop=1;jettySize=auto;html=1;exitX=0.5;exitY=1;exitDx=0;exitDy=0;entryX=0.5;entryY=0;entryDx=0;entryDy=0;" edge="1" parent="1" source="sP0U70dSBuYbOyyXhxNo-50" target="sP0U70dSBuYbOyyXhxNo-51">
          <mxGeometry relative="1" as="geometry" />
        </mxCell>
        <mxCell id="sP0U70dSBuYbOyyXhxNo-50" value="Give Suggestion" style="rounded=1;whiteSpace=wrap;html=1;fontSize=21;" vertex="1" parent="1">
          <mxGeometry x="820" y="560" width="202" height="60" as="geometry" />
        </mxCell>
        <mxCell id="sP0U70dSBuYbOyyXhxNo-51" value="Give rewards for Imporvment" style="rounded=1;whiteSpace=wrap;html=1;fontSize=21;" vertex="1" parent="1">
          <mxGeometry x="820" y="680" width="202" height="80" as="geometry" />
        </mxCell>
      </root>
    </mxGraphModel>
  </diagram>
</mxfile>
